<?xml version="1.0" encoding="UTF-8"?><svg width="157" height="24" viewBox="0 0 157 24" fill="none" xmlns="http://www.w3.org/2000/svg">
<g clip-path="url(#clip0_73_79740)">
<g clip-path="url(#clip1_73_79740)">
<path d="M7.52446 0.937187H12.7991L20.2444 18.879H14.6736L9.96095 6.96241L6.85499 14.7811H10.5512L12.024 18.879H0L7.52446 0.937187ZM26.4563 4.65981C26.9919 4.65981 27.5802 4.71262 28.1705 4.84651V0.401611H32.8304V18.0756C31.7592 18.5584 29.4566 19.1467 27.154 19.1467C22.9769 19.1467 19.3882 16.7631 19.3882 12.024C19.3882 7.28489 22.843 4.65981 26.4582 4.65981H26.4563ZM27.0466 15.3166C27.4746 15.3166 27.8235 15.2355 28.1705 15.1299V8.62194C27.8216 8.48804 27.4746 8.43524 27.0183 8.43524C25.4926 8.43524 24.0726 9.55919 24.0726 11.9429C24.0726 14.3266 25.519 15.3166 27.0447 15.3166H27.0466ZM41.1318 4.65981C45.0147 4.65981 48.3093 7.28489 48.3093 11.8901C48.3093 16.4953 45.0147 19.1203 41.1318 19.1203C37.2489 19.1203 33.9279 16.4953 33.9279 11.8901C33.9279 7.28489 37.1942 4.65981 41.1318 4.65981ZM41.1318 15.2374C42.4707 15.2374 43.7022 14.1663 43.7022 11.8901C43.7022 9.61388 42.4707 8.54273 41.1318 8.54273C39.7929 8.54273 38.5878 9.61388 38.5878 11.8901C38.5878 14.1663 39.7401 15.2374 41.1318 15.2374ZM49.4332 0.401611H54.1195V4.84651C54.6815 4.73902 55.2718 4.65981 55.8601 4.65981C59.5017 4.65981 62.8754 7.0435 62.8754 11.7034C62.8754 16.6311 59.2867 19.1203 55.0285 19.1203C53.2068 19.1203 50.8778 18.7451 49.4313 18.0756V0.401611H49.4332ZM55.136 15.2902C56.7427 15.2902 58.2155 14.138 58.2155 11.7562C58.2155 9.53279 56.7691 8.48993 55.2171 8.48993C54.789 8.48993 54.4401 8.54273 54.1195 8.67663V15.1035C54.3873 15.211 54.7362 15.2902 55.1379 15.2902H55.136ZM70.8298 4.65981C74.3375 4.65981 77.5509 6.90961 77.5509 11.4356C77.5509 12.0523 77.5245 12.6406 77.4434 13.229H68.7139C69.1967 14.8093 70.5885 15.558 72.3291 15.558C73.7491 15.558 75.0598 15.2091 76.5326 14.568V18.1303C75.1672 18.8262 73.5341 19.1203 71.8463 19.1203C67.4014 19.1203 63.9466 16.4425 63.9466 11.8901C63.9466 7.33769 67.0789 4.65981 70.828 4.65981H70.8298ZM73.1852 10.3098C72.9439 8.78412 71.9274 8.16745 70.8826 8.16745C69.8379 8.16745 68.9817 8.81052 68.6328 10.3098H73.1852Z" fill="#EB1000"/>
<path d="M83.8967 0.937257H96.9919V5.19546H88.8772V8.27502H96.0547V12.5332H88.8772V18.879H83.8967V0.937257ZM102.857 2.1159C102.857 3.40203 101.946 4.2846 100.42 4.2846C98.8947 4.2846 97.9575 3.42844 97.9575 2.1159C97.9575 0.803363 98.9475 0 100.42 0C101.893 0 102.857 0.856166 102.857 2.1159ZM98.0895 4.90127H102.776V18.879H98.0895V4.90127ZM110.193 4.65988C111.29 4.65988 112.175 4.79378 112.576 4.92767V8.5692C112.256 8.48811 111.639 8.43531 111.13 8.43531C110.14 8.43531 109.576 8.5164 109.069 8.7031V18.879H104.382V5.83852C106.07 5.08797 107.756 4.65988 110.193 4.65988ZM126.475 11.4885C126.475 12.1315 126.422 12.8274 126.341 13.363H117.585C118.121 14.7019 119.407 15.345 121.415 15.345C122.862 15.345 124.12 15.0772 125.379 14.4888L125.432 18.2114C124.067 18.9073 122.594 19.1487 120.693 19.1487C116.007 19.1487 112.874 16.5519 112.874 11.8373C112.874 7.52634 115.873 4.65988 119.837 4.65988C123.801 4.65988 126.477 7.28496 126.477 11.4885H126.475ZM122.109 10.3098C122.002 9.05198 121.225 8.16752 119.859 8.16752C118.494 8.16752 117.717 8.86339 117.423 10.3098H122.109ZM128.457 18.879V8.7559H126.716V5.03328H128.457C128.538 2.08761 130.305 0.2395 133.437 0.2395C134.133 0.2395 134.75 0.320591 135.125 0.426197L135.099 3.82635C134.912 3.79994 134.697 3.77354 134.403 3.77354C133.6 3.77354 133.145 4.17522 133.145 5.03139H135.206V8.75402H133.145V18.8771H128.459L128.457 18.879ZM140.721 0.37528V13.8458C140.721 14.8094 141.015 15.1583 141.792 15.1583C142.033 15.1583 142.141 15.1319 142.327 15.0772V18.8526C141.711 19.1204 140.854 19.1468 140.185 19.1468C137.347 19.1468 136.061 17.7551 136.061 14.8358V0.37528H140.721ZM149.237 12.7727C150.014 10.0684 150.844 7.46977 151.621 4.89938H156.522L149.827 23.0015H144.766L146.855 18.1002L141.607 4.89938H146.642C147.498 7.44337 148.383 10.0402 149.239 12.7727H149.237Z" fill="white"/>
</g>
</g>
<defs>
<clipPath id="clip0_73_79740">
<rect width="156.52" height="23.2711" fill="white"/>
</clipPath>
<clipPath id="clip1_73_79740">
<rect width="156.52" height="23.2711" fill="white"/>
</clipPath>
</defs>
</svg>
